<svg xmlns="http://www.w3.org/2000/svg" viewBox="0 0 920 860" role="img" aria-labelledby="title desc">
  <title id="title">CLIP-AUTT action unit prompting logo</title>
  <desc id="desc">A stylized logo with video frames, an annotated face, AU prompt box, and circular adaptation arrows.</desc>
  <defs>
    <filter id="shadow" x="-20%" y="-20%" width="140%" height="140%">
      <feDropShadow dx="0" dy="8" stdDeviation="12" flood-color="#0f3b68" flood-opacity="0.18"/>
    </filter>
    <style>
      .navy{stroke:#073267}.blue{stroke:#1473ff}.teal{stroke:#12a48c}.ink{fill:#073267}.teal-fill{fill:#12a48c}.blue-fill{fill:#1473ff}.none{fill:none;stroke-linecap:round;stroke-linejoin:round}.thin{stroke-width:3}.med{stroke-width:5}.bold{stroke-width:10}.dash{stroke-dasharray:9 9}.label{font-family:Inter,Arial,sans-serif;font-weight:800}.body{font-family:Inter,Arial,sans-serif;font-weight:700}
    </style>
  </defs>
  <rect width="920" height="860" rx="42" fill="#fff"/>

  <g filter="url(#shadow)">
    <rect x="28" y="170" width="210" height="375" rx="12" fill="#073267"/>
    <g fill="#fff">
      <rect x="62" y="182" width="140" height="110" rx="7"/>
      <rect x="62" y="305" width="140" height="110" rx="7"/>
      <rect x="62" y="428" width="140" height="110" rx="7"/>
      <rect x="36" y="188" width="18" height="20" rx="3"/><rect x="211" y="188" width="18" height="20" rx="3"/>
      <rect x="36" y="229" width="18" height="20" rx="3"/><rect x="211" y="229" width="18" height="20" rx="3"/>
      <rect x="36" y="270" width="18" height="20" rx="3"/><rect x="211" y="270" width="18" height="20" rx="3"/>
      <rect x="36" y="311" width="18" height="20" rx="3"/><rect x="211" y="311" width="18" height="20" rx="3"/>
      <rect x="36" y="352" width="18" height="20" rx="3"/><rect x="211" y="352" width="18" height="20" rx="3"/>
      <rect x="36" y="393" width="18" height="20" rx="3"/><rect x="211" y="393" width="18" height="20" rx="3"/>
      <rect x="36" y="434" width="18" height="20" rx="3"/><rect x="211" y="434" width="18" height="20" rx="3"/>
      <rect x="36" y="475" width="18" height="20" rx="3"/><rect x="211" y="475" width="18" height="20" rx="3"/>
      <rect x="36" y="516" width="18" height="20" rx="3"/><rect x="211" y="516" width="18" height="20" rx="3"/>
    </g>
    <g class="navy none thin" opacity=".75">
      <path d="M99 268c25 12 55 11 78-2M95 391c28 15 60 14 82-1M97 514c26 13 57 13 80-1"/>
      <path d="M102 250c6-38 70-37 75 0M104 373c8-37 68-36 73 0M104 496c7-36 67-36 73 0"/>
    </g>
  </g>

  <path class="teal none bold" d="M238 143C353 24 578 11 696 139"/>
  <path class="teal-fill" d="M682 128l38 8-13 37z"/>
  <path class="navy none bold" d="M735 184c47 93 45 192-1 290M724 557c-75 126-192 163-310 143"/>
  <path class="ink" d="M424 690l-44 14 33 33z"/>

  <g transform="translate(265 104)">
    <path class="navy none med" d="M46 236c-19 3-24 30-11 54 8 16 20 24 31 22M391 236c19 3 24 30 11 54-8 16-20 24-31 22"/>
    <path class="navy none med" d="M63 525c-5-93-7-156-5-268 8-191 276-205 307-12 8 113 3 194-3 280"/>
    <path class="navy none med" d="M75 198c59-16 96-95 159-74 57 19 73 78 126 76"/>
    <path class="navy none thin" d="M107 260c43-33 91-31 119-7M258 253c41-25 76-24 109 3"/>
    <path class="navy none thin" d="M124 315c29-18 67-18 94 0M278 315c27-18 64-18 90 0"/>
    <ellipse cx="172" cy="310" rx="13" ry="15" class="ink"/><ellipse cx="326" cy="310" rx="13" ry="15" class="ink"/>
    <path class="navy none thin" d="M226 310c-13 40-18 83 7 94 16 6 32 5 47-2"/>
    <path class="navy none thin" d="M178 454c51 22 104 22 153 0M209 475c28 13 66 13 92 0"/>
    <path class="blue none thin dash" d="M104 291c38-40 95-38 129-7M265 284c40-34 82-32 119 4M101 410c41 22 76 46 92 94M344 410c-44 26-75 50-87 96M208 512c33-13 69-13 100 0"/>
    <g class="blue-fill"><circle cx="111" cy="245" r="5"/><circle cx="144" cy="232" r="5"/><circle cx="179" cy="240" r="5"/><circle cx="207" cy="252" r="5"/><circle cx="295" cy="252" r="5"/><circle cx="330" cy="242" r="5"/><circle cx="365" cy="232" r="5"/><circle cx="392" cy="242" r="5"/><circle cx="175" cy="454" r="5"/><circle cx="327" cy="454" r="5"/><circle cx="251" cy="526" r="5"/></g>
  </g>

  <g filter="url(#shadow)">
    <path d="M50 585h220l22-43 21 43h42a22 22 0 0 1 22 22v151a22 22 0 0 1-22 22h-25l30 38-65-38H72a22 22 0 0 1-22-22V607a22 22 0 0 1 22-22z" fill="#fff" stroke="#12a48c" stroke-width="6"/>
    <text x="78" y="632" class="label teal-fill" font-size="31">AU PROMPT</text>
    <text x="78" y="677" class="body ink" font-size="24">AU1 (Inner Brow Raiser)</text>
    <text x="78" y="714" class="body ink" font-size="24">AU12 (Lip Corner Puller)</text>
    <text x="78" y="751" class="body ink" font-size="24">AU6 (Cheek Raiser)</text>
    <text x="78" y="786" class="body ink" font-size="24">...</text>
  </g>

  <g class="teal-fill"><circle cx="286" cy="469" r="5"/><circle cx="286" cy="489" r="5"/><circle cx="286" cy="509" r="5"/></g>
  <g transform="translate(655 458)">
    <g class="blue none bold"><path d="M0 0h59M0 24h59M0 48h59M0 72h59"/></g>
    <path class="navy none bold" d="M86 15l-27 27 27 27M68 42h90M140 15l27 27-27 27"/>
    <g class="teal none bold"><path d="M150 0h54M150 24h54M150 48h54M150 72h54"/></g>
  </g>
</svg>
